Coordinates
version=1
nRows=24
nColumns=24
inDegrees=yes

Units are S.I. units (second, meters, Newtons, ...)
Angles are in degrees.

endheader
time	pelvis_tilt	pelvis_list	pelvis_rotation	pelvis_tx	pelvis_ty	pelvis_tz	hip_flexion_r	hip_adduction_r	hip_rotation_r	knee_angle_r	ankle_angle_r	subtalar_angle_r	mtp_angle_r	hip_flexion_l	hip_adduction_l	hip_rotation_l	knee_angle_l	ankle_angle_l	subtalar_angle_l	mtp_angle_l	lumbar_extension	lumbar_bending	lumbar_rotation
      2.08500000	      9.17859366	      1.79678376	      3.89463166	      0.38492672	      1.01440126	      0.02720612	     -1.95416816	     -1.01774301	    -22.85003864	    -15.74626537	      1.23943102	     11.00488320	      6.67930616	      2.51981173	     -7.13554191	    -14.16017366	    -50.49630004	     -3.71830776	    -10.61108746	     19.46889220	    -14.58513456	     -7.13778609	    -25.30480321
      2.09000000	      9.21966493	      1.82454674	      3.61867106	      0.39085617	      1.01524086	      0.02794913	     -2.53272223	     -0.95782911	    -22.73438608	    -15.36659388	      1.29760277	     11.22594508	      6.65715482	      2.87397147	     -6.95156756	    -14.52303362	    -49.70500602	     -3.45123059	    -10.46504545	     19.49993472	    -14.56388824	     -7.24582013	    -25.08440955
      2.09500000	      9.25830650	      1.82663165	      3.35657562	      0.39676576	      1.01600058	      0.02867969	     -3.10634491	     -0.87137922	    -22.61969387	    -14.98466367	      1.34677132	     11.43488723	      6.60879594	      3.23247720	     -6.79909922	    -14.86670374	    -48.89417151	     -3.19438658	    -10.26802426	     19.51952373	    -14.53710283	     -7.32097587	    -24.84778850
      2.10000000	      9.29265750	      1.82185092	      3.09020802	      0.40265462	      1.01668882	      0.02941252	     -3.66830255	     -0.78226995	    -22.50487164	    -14.61220278	      1.38983776	     11.62416064	      6.55186133	      3.58562251	     -6.65663326	    -15.22687035	    -48.04755405	     -2.98193681	    -10.10572582	     19.52071632	    -14.50786290	     -7.39327419	    -24.61750616
      2.10500000	      9.32156109	      1.81447367	      2.82476797	      0.40854233	      1.01732070	      0.03013424	     -4.22157503	     -0.69590584	    -22.37258699	    -14.24752436	      1.44454923	     11.80967903	      6.48240078	      3.93208947	     -6.51729667	    -15.59302320	    -47.16063978	     -2.81507545	     -9.97074198	     19.49905857	    -14.46963043	     -7.46332802	    -24.38242969
      2.11000000	      9.35682287	      1.79940920	      2.55913399	      0.41440215	      1.01787516	      0.03086544	     -4.77574709	     -0.60356747	    -22.23134547	    -13.89107035	      1.51952210	     11.98256869	      6.39559957	      4.26566922	     -6.39100399	    -15.96708670	    -46.24915502	     -2.68884276	     -9.87042648	     19.45089335	    -14.43984776	     -7.52999014	    -24.14618715
      2.11500000	      9.38979726	      1.78225106	      2.28682824	      0.42024289	      1.01837424	      0.03156947	     -5.32263439	     -0.51796999	    -22.07607895	    -13.54225693	      1.59742139	     12.15697987	      6.29081415	      4.58786351	     -6.26571213	    -16.35789633	    -45.29975238	     -2.60463323	     -9.80868691	     19.37177292	    -14.40974123	     -7.58990979	    -23.90409796
      2.12000000	      9.41186284	      1.75723100	      2.01670470	      0.42607508	      1.01879345	      0.03227960	     -5.85438610	     -0.42806553	    -21.91641320	    -13.20181021	      1.69065282	     12.32272426	      6.16285941	      4.91517775	     -6.15260800	    -16.75611921	    -44.32796840	     -2.55855581	     -9.78617000	     19.25457649	    -14.36467555	     -7.64726743	    -23.66643300
      2.12500000	      9.43125304	      1.72452316	      1.74938031	      0.43190975	      1.01914194	      0.03298820	     -6.38130372	     -0.33452720	    -21.77057044	    -12.86568340	      1.76355787	     12.48624446	      6.05700320	      5.23485152	     -6.05382690	    -17.17517863	    -43.33030271	     -2.55449911	     -9.79931208	     19.13376651	    -14.31517318	     -7.70051656	    -23.43622062
      2.13000000	      9.45075825	      1.68766989	      1.48413013	      0.43771557	      1.01942143	      0.03369804	     -6.90417869	     -0.24014436	    -21.61211429	    -12.53736422	      1.85919374	     12.64329236	      5.95246636	      5.54768273	     -5.96175953	    -17.60068608	    -42.31198217	     -2.58198711	     -9.83955416	     18.98987069	    -14.27025486	     -7.75350080	    -23.20454103
      2.13500000	      9.46721584	      1.64398825	      1.21343520	      0.44349759	      1.01964054	      0.03437168	     -7.41688605	     -0.14904566	    -21.43257034	    -12.22455913	      1.97519038	     12.80019598	      5.81768860	      5.85465146	     -5.87602477	    -18.04324385	    -41.27247651	     -2.63709948	     -9.90880794	     18.78680748	    -14.22248275	     -7.79078418	    -22.96079431
      2.14000000	      9.46698098	      1.57692916	      0.95781464	      0.44924964	      1.01975557	      0.03505102	     -7.91120673	     -0.03256326	    -21.25487850	    -11.91305320	      2.15347152	     12.98102642	      4.85724542	      6.18687314	     -5.82295334	    -18.48418128	    -40.25058997	     -2.59299741	     -9.90557773	     17.57027863	    -14.15966879	     -7.80786845	    -22.74220674
      2.14500000	      9.48515101	      1.52265691	      0.70739044	      0.45502448	      1.01983949	      0.03570246	     -8.42670038	      0.06331459	    -21.12360309	    -11.60395801	      2.25849870	     13.15417761	      4.85322492	      6.47841154	     -5.75624652	    -18.93857856	    -39.17853646	     -2.71991143	     -9.97147896	     17.50397596	    -14.11723790	     -7.83937935	    -22.52789318
      2.15000000	      9.48366238	      1.44373247	      0.46867140	      0.46077222	      1.01983385	      0.03635702	     -8.91903008	      0.18469982	    -20.96240545	    -11.29512304	      2.33456081	     13.31555649	      4.84775552	      6.79290995	     -5.72125023	    -19.39368409	    -38.10502437	     -2.88878804	    -10.03687475	     17.41586669	    -14.05674601	     -7.84798864	    -22.33932745
      2.15500000	      9.48896781	      1.36991683	      0.21396867	      0.46650558	      1.01975864	      0.03698617	     -9.40966605	      0.28868435	    -20.79918974	    -11.00730327	      2.46294477	     13.46741686	      4.84442688	      7.08775562	     -5.67924472	    -19.88614362	    -37.01721962	     -3.05312845	    -10.12557726	     17.30041611	    -14.00194983	     -7.85634733	    -22.10747560
      2.16000000	      9.49256397	      1.29459743	     -0.04407613	      0.47222968	      1.01961100	      0.03760770	     -9.89081540	      0.38711426	    -20.63866710	    -10.73951627	      2.62196830	     13.59950881	      4.83053914	      7.37607612	     -5.63925417	    -20.40154086	    -35.92216260	     -3.18885858	    -10.22161830	     17.12786089	    -13.94661612	     -7.86291727	    -21.86119382
      2.16500000	      9.48686314	      1.20076745	     -0.28563981	      0.47793318	      1.01939507	      0.03820415	    -10.36308097	      0.50309273	    -20.47760050	    -10.46942450	      2.75815241	     13.74566530	      4.81220012	      7.67574521	     -5.62052426	    -20.90753918	    -34.82689965	     -3.35674745	    -10.26069166	     16.92331532	    -13.88541795	     -7.84897741	    -21.64313294
      2.17000000	      9.44161482	      1.09940879	     -0.53752559	      0.48358288	      1.01906277	      0.03881198	    -10.77773967	      0.62022834	    -20.25584687	    -10.22415367	      2.92843462	     13.84579985	      4.54442736	      8.02033290	     -5.61238538	    -21.42154735	    -33.75045746	     -3.39321341	    -10.15403296	     15.63744069	    -13.78559369	     -7.82978205	    -21.40187577
      2.17500000	      9.46677139	      0.98693876	     -0.73954601	      0.48929690	      1.01875401	      0.03934555	    -11.28870791	      0.75271620	    -20.16422757	     -9.95904387	      3.08330890	     14.03947973	      4.55564712	      8.28114365	     -5.61185788	    -21.92823283	    -32.65149901	     -3.56045182	    -10.11949924	     15.53564861	    -13.76760713	     -7.79509028	    -21.24373249
      2.18000000	      9.45247991	      0.87365394	     -0.96600256	      0.49497109	      1.01834991	      0.03987667	    -11.73927057	      0.87142377	    -20.01725733	     -9.72383333	      3.24496184	     14.20587274	      4.56200165	      8.57612548	     -5.61081092	    -22.45643346	    -31.54595502	     -3.72157181	    -10.03580758	     15.39840714	    -13.70730448	     -7.75701213	    -21.04034144
      2.18500000	      9.43016413	      0.73997361	     -1.20262473	      0.50059912	      1.01785897	      0.04042572	    -12.17042477	      1.00641234	    -19.81231150	     -9.50839135	      3.45663599	     14.34380928	      4.53037186	      8.88000847	     -5.63769324	    -23.00452489	    -30.45759385	     -3.81094923	     -9.82527431	     15.00958667	    -13.64402127	     -7.69948026	    -20.82527075
      2.19000000	      9.41924678	      0.62353466	     -1.40267252	      0.50627431	      1.01734738	      0.04088626	    -12.62473460	      1.12277588	    -19.71677583	     -9.27970474	      3.59300152	     14.51116314	      4.53497346	      9.16296952	     -5.62961253	    -23.52508410	    -29.34387997	     -3.95511781	     -9.65681461	     14.86109560	    -13.59498022	     -7.65405756	    -20.64257334
      2.19500000	      9.39654382	      0.49429921	     -1.61691131	      0.51191763	      1.01675472	      0.04135941	    -13.05442520	      1.24407111	    -19.57294869	     -9.07584257	      3.78042564	     14.67810722	      4.54379850	      9.45405436	     -5.63875583	    -24.06911851	    -28.23733016	     -4.05728496	     -9.38208829	     14.70207602	    -13.53628240	     -7.59850184	    -20.44430055
      2.20000000	      9.36693215	      0.35528257	     -1.82040027	      0.51756169	      1.01610321	      0.04180507	    -13.47289146	      1.37256086	    -19.43543786	     -8.88474607	      3.96887405	     14.83781058	      4.55175595	      9.74972573	     -5.65496778	    -24.60251949	    -27.13321006	     -4.12963198	     -9.03764113	     14.54410455	    -13.47306490	     -7.53145866	    -20.26583150
